<?xml version="1.0" encoding="utf-8"?>
<!-- Generator: Adobe Illustrator 19.2.0, SVG Export Plug-In . SVG Version: 6.00 Build 0)  -->
<svg version="1.1" id="Слой_1" xmlns="http://www.w3.org/2000/svg" xmlns:xlink="http://www.w3.org/1999/xlink" x="0px" y="0px"
	 viewBox="0 0 45.4 45.4" style="enable-background:new 0 0 45.4 45.4;" xml:space="preserve">
<style type="text/css">
	.st0{fill:#555454;}
</style>
<g>
	<path class="st0" d="M14,42.2c-5.7,0-8.3-0.5-9.7-1.9c-1.3-1.3-1.2-3.1-1.2-5.6c0-0.6,0-1.2,0-1.9l0,0c-0.1-5.3,0-10.9,0-16.3
		c0-2.5,0-4.9,0-7.2c0-4,2.8-6.3,7.6-6.3H42v38.3v0.6l-1,0.1c-0.7-0.1-7.3-0.1-13.6,0C23.1,42.2,18.3,42.2,14,42.2z M4.6,32.9
		c0,0.7,0,1.3,0,1.9c0,2.2,0,3.7,0.8,4.5c1,1,3.5,1.4,8.6,1.4c4.2,0,9,0,13.4-0.1c8.2-0.1,11.6-0.1,13.1,0v-36H10.8
		C8,4.7,4.6,5.5,4.6,9.5c0,2.3,0,4.7,0,7.2C4.6,22.1,4.6,27.6,4.6,32.9L4.6,32.9z"/>
	<path class="st0" d="M21.5,24.2l-0.4-0.4v0l-4.3-5.4l-4.6,5.9l-1-0.3l0-0.6V3.2h11.3v20.7L21.5,24.2z M12.7,4.7v16.6l4.2-5.3
		l4.2,5.3V4.7H12.7z"/>
	<path class="st0" d="M3.1,36.3C3,35,3.5,33.8,4.4,32.8c1.1-1.2,2.9-1.9,4.9-1.8c7.5,0.2,31.7,0,32,0l0,1.5c-0.2,0-24.5,0.2-32,0
		c-1.6,0-2.9,0.5-3.8,1.4c-0.6,0.6-0.9,1.4-0.8,2.3L3.1,36.3z"/>
</g>
</svg>
