<?xml version="1.0" encoding="utf-8"?>
<!-- Generator: Adobe Illustrator 19.2.0, SVG Export Plug-In . SVG Version: 6.00 Build 0)  -->
<svg version="1.1" id="Слой_1" xmlns="http://www.w3.org/2000/svg" xmlns:xlink="http://www.w3.org/1999/xlink" x="0px" y="0px"
	 viewBox="0 0 45.4 45.4" style="enable-background:new 0 0 45.4 45.4;" xml:space="preserve">
<style type="text/css">
	.st0{fill:#3eb0f7;}
</style>
<g>
	<path class="st0" d="M37.9,32.2H14.4L9.5,12.9h34.7l0.4,0.6l-0.1,0.4L37.9,32.2z M15.6,30.7h21.3l6-16.3H11.5L15.6,30.7z"/>
	<rect x="0.7" y="1.7" class="st0" width="7.8" height="1.5"/>
	<rect x="8.2" y="2.3" transform="matrix(0.9658 -0.2594 0.2594 0.9658 -1.7833 2.6082)" class="st0" width="1.5" height="11.6"/>
	<rect x="14.9" y="31.4" transform="matrix(0.9635 -0.2676 0.2676 0.9635 -8.4571 5.4094)" class="st0" width="1.5" height="4.7"/>
	<rect x="15.9" y="35.3" class="st0" width="18.1" height="1.5"/>
	<path class="st0" d="M15.9,43.6c-2.3,0-4.2-1.9-4.2-4.2s1.9-4.2,4.2-4.2c2.3,0,4.2,1.9,4.2,4.2S18.2,43.6,15.9,43.6z M15.9,36.8
		c-1.5,0-2.7,1.2-2.7,2.7s1.2,2.7,2.7,2.7c1.5,0,2.7-1.2,2.7-2.7S17.4,36.8,15.9,36.8z"/>
	<path class="st0" d="M34,43.6c-2.3,0-4.2-1.9-4.2-4.2s1.9-4.2,4.2-4.2c2.3,0,4.2,1.9,4.2,4.2S36.3,43.6,34,43.6z M34,36.8
		c-1.5,0-2.7,1.2-2.7,2.7s1.2,2.7,2.7,2.7c1.5,0,2.7-1.2,2.7-2.7S35.5,36.8,34,36.8z"/>
</g>
</svg>
