<?xml version="1.0" encoding="utf-8"?>
<!-- Generator: Adobe Illustrator 19.2.0, SVG Export Plug-In . SVG Version: 6.00 Build 0)  -->
<svg version="1.1" id="Слой_1" xmlns="http://www.w3.org/2000/svg" xmlns:xlink="http://www.w3.org/1999/xlink" x="0px" y="0px"
	 viewBox="0 0 28.3 28.3" style="enable-background:new 0 0 28.3 28.3;" xml:space="preserve">
<style type="text/css">
	.st0{fill:#64B2E8;}
</style>
<g>
	<path class="st0" d="M14.3,17.1c-1.6,0-2.9-1.3-2.9-2.9s1.3-2.9,2.9-2.9s2.9,1.3,2.9,2.9S15.9,17.1,14.3,17.1z M14.3,12.2
		c-1.1,0-1.9,0.9-1.9,1.9s0.9,1.9,1.9,1.9s1.9-0.9,1.9-1.9S15.3,12.2,14.3,12.2z"/>
	<path class="st0" d="M14.3,19.3c-2.8,0-5.1-2.3-5.1-5.1S11.4,9,14.3,9s5.1,2.3,5.1,5.1S17.1,19.3,14.3,19.3z M14.3,10
		c-2.3,0-4.1,1.9-4.1,4.1c0,2.3,1.9,4.1,4.1,4.1c2.3,0,4.1-1.9,4.1-4.1C18.4,11.9,16.5,10,14.3,10z"/>
	<path class="st0" d="M14.3,21.8c-7,0-12.3-7.4-12.6-7.8l-0.2-0.3l0.3-0.3C2,13.2,7.7,6.5,14.3,6.5c7.1,0,12.2,7.1,12.4,7.4l0.2,0.3
		l-0.2,0.3C26.5,14.8,21.4,21.8,14.3,21.8z M2.7,13.8c1.1,1.4,5.8,7,11.5,7c5.8,0,10.3-5.3,11.4-6.6c-1-1.3-5.6-6.6-11.4-6.6
		C8.9,7.5,3.9,12.5,2.7,13.8z"/>
</g>
</svg>
