<?xml version="1.0" encoding="utf-8"?>
<!-- Generator: Adobe Illustrator 19.2.0, SVG Export Plug-In . SVG Version: 6.00 Build 0)  -->
<svg version="1.1" id="Слой_1" xmlns="http://www.w3.org/2000/svg" xmlns:xlink="http://www.w3.org/1999/xlink" x="0px" y="0px"
	 viewBox="0 0 243.3 242.9" style="enable-background:new 0 0 243.3 242.9;" xml:space="preserve">
<style type="text/css">
	.st0{fill:#F4C847;}
	.st1{fill:#3B3C53;}
	.st2{fill:#FFFFFF;}
</style>
<g>
	<circle class="st0" cx="122" cy="122.7" r="116.6"/>
	<circle class="st1" cx="122" cy="122.7" r="79.1"/>
	<path class="st0" d="M80.1,84.7c0,0-4.1-3.8-6.1-5.3c-1.2-1-6.2-3.9-8.9-4.6c-2.8-0.8-5.7-1.4-5.7-1.4l2.3-3.2l2.3-2
		c0,0,3,0.4,6,1.5c2.1,0.7,6.9,3.3,7.9,4c3.9,2.9,7.2,6.1,7.2,6.1L80.1,84.7z"/>
	<path class="st0" d="M73.5,125.7c-11.2-12.3-6.5-25,3.2-35c5.5-5.6,4.8-4.6,5.6-5.5l27.7,25.6l-25.6,25.6
		C84.3,136.4,80.7,133.7,73.5,125.7z"/>
	<path class="st2" d="M90.5,76.8c11.9-11.7,26-10.2,40.8,3.8c6,5.6,3.8,3.8,4.8,4.6l-23.9,23.5c0,0-0.1,0-0.2,0L84.6,82.9
		c0,0,0.5-0.5,0.4-0.5C84.8,82.5,85.1,82.1,90.5,76.8z"/>
	<path class="st2" d="M86.9,139.6c0,0,18.4,18.8,31.6,29.8c12.1,10.1,29.8,9.2,44.5-5.8c14.3-14.5,17.5-32.1-1.7-52.3
		c-11.8-12.4-22.9-23.2-22.9-23.2L86.9,139.6z"/>
</g>
</svg>
