<?xml version="1.0" encoding="utf-8"?>
<!-- Generator: Adobe Illustrator 19.2.0, SVG Export Plug-In . SVG Version: 6.00 Build 0)  -->
<svg version="1.1" id="Слой_1" xmlns="http://www.w3.org/2000/svg" xmlns:xlink="http://www.w3.org/1999/xlink" x="0px" y="0px"
	 viewBox="0 0 28.3 28.3" style="enable-background:new 0 0 28.3 28.3;" xml:space="preserve">
<style type="text/css">
	.st0{fill:#64B2E8;}
</style>
<g>
	<path class="st0" d="M14.2,27.9l-0.9-1.7c-0.8-1.5-7.6-14.6-7.6-18.3c0-4.1,3.8-7.4,8.5-7.4s8.5,3.3,8.5,7.4
		c0,3.7-6.8,16.8-7.6,18.3L14.2,27.9z M14.2,2.5c-3.6,0-6.5,2.4-6.5,5.4c0,2.2,3.6,10,6.5,15.6c2.9-5.7,6.5-13.4,6.5-15.6
		C20.6,4.9,17.7,2.5,14.2,2.5z"/>
	<path class="st0" d="M14.2,13.1c-2.1,0-3.8-1.7-3.8-3.8s1.7-3.8,3.8-3.8s3.7,1.7,3.7,3.8S16.2,13.1,14.2,13.1z M14.2,7.1
		c-1.2,0-2.3,1-2.3,2.3s1,2.3,2.3,2.3c1.2,0,2.2-1,2.2-2.3S15.4,7.1,14.2,7.1z"/>
</g>
</svg>
