<?xml version="1.0" encoding="utf-8"?>
<!-- Generator: Adobe Illustrator 19.2.0, SVG Export Plug-In . SVG Version: 6.00 Build 0)  -->
<svg version="1.1" id="Слой_1" xmlns="http://www.w3.org/2000/svg" xmlns:xlink="http://www.w3.org/1999/xlink" x="0px" y="0px"
	 viewBox="0 0 28.3 28.3" style="enable-background:new 0 0 28.3 28.3;" xml:space="preserve">
<style type="text/css">
	.st0{fill:#64B2E8;}
</style>
<g>
	<path class="st0" d="M25.1,7v14.3H3.3V7H25.1z M24.1,20.3V8H4.2v12.3H24.1z"/>
	<path class="st0" d="M14.2,17.6c-0.1,0-0.3-0.1-0.4-0.2c-0.2-0.2-0.2-0.5,0-0.7l9.9-9c0.2-0.2,0.5-0.2,0.7,0s0.2,0.5,0,0.7l-9.9,9
		C14.4,17.5,14.3,17.6,14.2,17.6z"/>
	<path class="st0" d="M14.2,17.6c-0.1,0-0.2,0-0.3-0.1l-9.9-9c-0.2-0.2-0.2-0.5,0-0.7c0.2-0.2,0.5-0.2,0.7,0l9.9,9
		c0.2,0.2,0.2,0.5,0,0.7C14.4,17.5,14.3,17.6,14.2,17.6z"/>
	<rect x="2.9" y="16.6" transform="matrix(0.7168 -0.6973 0.6973 0.7168 -9.8269 10.07)" class="st0" width="9.1" height="1"/>
	<rect x="20.4" y="12.5" transform="matrix(0.7128 -0.7013 0.7013 0.7128 -5.9547 19.5847)" class="st0" width="1" height="9.1"/>
</g>
</svg>
