<?xml version="1.0" encoding="utf-8"?>
<!-- Generator: Adobe Illustrator 19.2.0, SVG Export Plug-In . SVG Version: 6.00 Build 0)  -->
<svg version="1.1" id="Слой_1" xmlns="http://www.w3.org/2000/svg" xmlns:xlink="http://www.w3.org/1999/xlink" x="0px" y="0px"
	 viewBox="0 0 45.4 45.4" style="enable-background:new 0 0 45.4 45.4;" xml:space="preserve">
<style type="text/css">
	.st0{fill:#555454;}
</style>
<g>
	<path class="st0" d="M44.6,31.9H6.3V7.5h38.4V31.9z M7.8,30.4h35.4V9H7.8V30.4z"/>
	<rect x="3.7" y="11.2" class="st0" width="1.5" height="23.5"/>
	
		<rect x="22.1" y="15.5" transform="matrix(2.248493e-003 -1 1 2.248493e-003 -11.0729 56.7224)" class="st0" width="1.5" height="36.9"/>
	<rect x="0.7" y="14.3" class="st0" width="1.5" height="23.5"/>
	
		<rect x="19.2" y="18.6" transform="matrix(2.261719e-003 -1 1 2.261719e-003 -17.1409 56.8694)" class="st0" width="1.5" height="36.9"/>
	<rect x="10.6" y="10.7" class="st0" width="4.7" height="1.5"/>
	<rect x="35.6" y="10.8" class="st0" width="4.7" height="1.5"/>
	<rect x="10.6" y="26.8" class="st0" width="4.7" height="1.5"/>
	<rect x="35.6" y="26.8" class="st0" width="4.7" height="1.5"/>
	<path class="st0" d="M25.6,24.4c-2.6,0-4.7-2.1-4.7-4.7c0-2.6,2.1-4.7,4.7-4.7s4.7,2.1,4.7,4.7C30.3,22.2,28.2,24.4,25.6,24.4z
		 M25.6,16.4c-1.8,0-3.2,1.4-3.2,3.2c0,1.8,1.4,3.2,3.2,3.2s3.2-1.4,3.2-3.2C28.8,17.9,27.4,16.4,25.6,16.4z"/>
</g>
</svg>
