<?xml version="1.0" encoding="utf-8"?>
<!-- Generator: Adobe Illustrator 19.2.0, SVG Export Plug-In . SVG Version: 6.00 Build 0)  -->
<svg version="1.1" id="Слой_1" xmlns="http://www.w3.org/2000/svg" xmlns:xlink="http://www.w3.org/1999/xlink" x="0px" y="0px"
	 viewBox="0 0 45.4 45.4" style="enable-background:new 0 0 45.4 45.4;" xml:space="preserve">
<style type="text/css">
	.st0{fill:#555454;}
</style>
<g>
	<path class="st0" d="M43.9,39H13.8v-2.7v-1.5v-2.4l0.5-0.2c0,0,2.8-1.2,5.5-2.3c0.6-0.3,1.3-0.5,1.9-0.8c0.4-0.2,0.9-0.3,1.3-0.5
		c1.9-0.7,1.5-2.6,1.2-3.3c-0.1-0.3-0.4-0.7-0.7-1.1c-0.9-1.3-2.2-3.3-2.3-6c0-0.4,0-0.8,0-1.2c-0.1-2.2-0.1-4,0.5-6.2
		c0.6-2.1,3.1-4.4,7.2-4.4c3.8,0,6.9,2,7.3,4.7c0.5,2.8,0.4,4.3,0.4,7.4l0,0.3c0,2.9-1.1,4.4-1.9,5.4c-0.5,0.6-0.7,1-0.7,1.4
		c-0.1,1.9,0.1,2.7,0.9,3c2.9,1.1,8.4,3.6,8.7,3.7l0.4,0.2V39z M15.3,37.5h27.1v-4.1c-1.4-0.6-5.7-2.6-8.1-3.5
		c-2.1-0.8-1.9-3.2-1.9-4.5c0.1-0.9,0.5-1.5,1-2.2c0.7-1,1.5-2,1.6-4.5l0-0.3c0-3,0.1-4.4-0.4-7.1c-0.3-1.7-2.4-3.4-5.8-3.4
		c-3.1,0-5.2,1.7-5.7,3.3c-0.5,1.9-0.5,3.6-0.4,5.7c0,0.4,0,0.8,0,1.2c0,2.2,1.2,4,2,5.2c0.4,0.6,0.7,1,0.8,1.4
		c0.7,1.8,0.5,4.3-2.1,5.3c-2.7,1-6.8,2.8-8.2,3.4v1.4v1.3V37.5z"/>
	<g>
		<path class="st0" d="M2.9,34.8v-3.2c1.1-0.5,4.2-1.9,6.2-2.7c2.1-0.8,2.2-3,1.7-4.5c-0.1-0.4-0.4-0.7-0.6-1.2
			c-0.6-1-1.5-2.4-1.5-4.3l0-1c0-1.8-0.1-3.1,0.3-4.7c0.4-1.3,1.9-2.6,4.2-2.6c2.5,0,4.1,1.4,4.3,2.7c0.3,2.2,0.3,3.4,0.3,5.9l0,0.3
			c0,2-0.6,2.9-1.2,3.7c-0.4,0.5-0.8,1.1-0.8,1.9c-0.1,1.1-0.2,3.1,1.5,3.8c0.5,0.2,1.8,0.8,2.6,1.1c1-0.2,1.4-0.4,1.9-0.8
			c-1-0.5-3.1-1.4-3.9-1.7c-0.5-0.2-0.7-0.8-0.6-2.4c0-0.3,0.2-0.6,0.6-1.1c0.6-0.9,1.4-2,1.5-4.5l0-0.3c0-2.5,0.1-3.7-0.3-6.1
			c-0.3-2.3-2.8-4-5.8-4c-3.2,0-5.2,2-5.7,3.8c-0.5,1.8-0.4,3.3-0.4,5.1l0,1c0,2.2,1.1,3.9,1.8,5c0.2,0.4,0.4,0.7,0.5,0.9
			c0.2,0.6,0.5,2.1-0.8,2.6c-2.6,1-6.7,2.9-6.7,3l-0.4,0.2v5.6l12.5,0c0-0.5,0-1,0-1.5L2.9,34.8z"/>
	</g>
</g>
</svg>
