<?xml version="1.0" encoding="utf-8"?>
<!-- Generator: Adobe Illustrator 19.2.0, SVG Export Plug-In . SVG Version: 6.00 Build 0)  -->
<svg version="1.1" id="Capa_1" xmlns="http://www.w3.org/2000/svg" xmlns:xlink="http://www.w3.org/1999/xlink" x="0px" y="0px"
	 viewBox="0 0 512 512" style="enable-background:new 0 0 512 512;" xml:space="preserve">
<style type="text/css">
	.st0{fill:#3399FF;}
</style>
<g>
	<path class="st0" d="M256,0C114.6,0,0,114.6,0,256s114.6,256,256,256s256-114.6,256-256S397.4,0,256,0z M256,487.2
		C128,487.2,24.8,383.3,24.8,256S128,24.8,256,24.8S487.2,128.7,487.2,256S383.3,487.2,256,487.2z M356.5,231.2
		c4.7,4.7,4.7,12.7,0,17.4c-2.7,2.7-5.3,3.4-8.7,3.4s-6-1.4-8.7-3.4l-71.1-71v196.3c0,6.7-5.3,12-12,12c-6.7,0-12-5.3-12-12V177.6
		l-70.4,70.4c-4.7,4.7-12.7,4.7-17.4,0s-4.7-12.7,0-17.4l91.1-91.1c0.7-0.7,1.4-1.4,2-1.4l0.7-0.7c0.7,0,0.7-0.7,1.4-0.7
		c0.7,0,0.7,0,1.4-0.7c0.7,0,0.7,0,1.4,0c1.4,0,3.4,0,4.7,0c0.7,0,0.7,0,1.4,0s0.7,0,1.4,0.7c0.7,0,0.7,0.7,1.4,0.7
		c0,0,0.7,0,0.7,0.7c0.7,0.7,1.4,0.7,2,1.4L356.5,231.2z"/>
</g>
</svg>
